<?xml version="1.0" standalone="no"?><!DOCTYPE svg PUBLIC "-//W3C//DTD SVG 1.1//EN" "http://www.w3.org/Graphics/SVG/1.1/DTD/svg11.dtd"><svg t="1540660366209" class="icon" style="" viewBox="0 0 1024 1024" version="1.1" xmlns="http://www.w3.org/2000/svg" p-id="1942" xmlns:xlink="http://www.w3.org/1999/xlink" width="200" height="200"><defs><style type="text/css"></style></defs><path d="M512 0C229.2 0 0 229.2 0 512s229.2 512 512 512 512-229.2 512-512S794.8 0 512 0z m0 970.2C258.9 970.2 53.8 765.1 53.8 512S258.9 53.8 512 53.8 970.2 258.9 970.2 512 765.1 970.2 512 970.2z" fill="#1796EF" p-id="1943"></path><path d="M512 817.2L247.7 664.6V359.4L512 206.8l264.3 152.6v305.2L512 817.2zM263.3 655.6L512 799.2l248.7-143.6V368.4L512 224.8 263.3 368.4v287.2z" fill="#1796EF" p-id="1944"></path><path d="M259.4 666.8l-7.8-13.5 513-296.1 7.8 13.5z" fill="#1796EF" p-id="1945"></path><path d="M504.2 215.8h15.6v592.3h-15.6z" fill="#1796EF" p-id="1946"></path><path d="M764.6 666.8l-513-296.1 7.8-13.5 513 296.1z" fill="#1796EF" p-id="1947"></path><path d="M363.1 606l-13-8.5 155.4-237.9 13.1 8.6z" fill="#1796EF" p-id="1948"></path><path d="M508.5 687l-155.4-78.3 7-13.9 155.4 78.3z" fill="#1796EF" p-id="1949"></path><path d="M515.9 686.8l-7.8-13.5 146-83.8 7.8 13.6z" fill="#1796EF" p-id="1950"></path><path d="M651.4 600.5l-146-232.4 13.2-8.3 146.1 232.4z" fill="#1796EF" p-id="1951"></path></svg>