<?xml version="1.0" standalone="no"?><!DOCTYPE svg PUBLIC "-//W3C//DTD SVG 1.1//EN" "http://www.w3.org/Graphics/SVG/1.1/DTD/svg11.dtd"><svg t="1540660395289" class="icon" style="" viewBox="0 0 1024 1024" version="1.1" xmlns="http://www.w3.org/2000/svg" p-id="2655" xmlns:xlink="http://www.w3.org/1999/xlink" width="200" height="200"><defs><style type="text/css"></style></defs><path d="M512 512m-512 0a512 512 0 1 0 1024 0 512 512 0 1 0-1024 0Z" fill="#1472BE" p-id="2656"></path><path d="M512 589.824zM747.52 669.696l-78.848 78.848-76.8-78.848-78.848-78.848-1.024-1.024-1.024 1.024-78.848 78.848-76.8 78.848L276.48 669.696l156.672-156.672 1.024-1.024L276.48 354.304l78.848-78.848 76.8 78.848L512 434.176l1.024-1.024 78.848-78.848 76.8-78.848L747.52 354.304l-156.672 156.672-1.024 1.024z" fill="#FFFFFF" p-id="2657"></path><path d="M660.48 268.288l-77.824 77.312L512 274.432 442.368 344.064 364.544 266.24 512 118.784zM512 434.176zM660.992 756.224L512 905.216l-147.456-146.944 77.312-77.824 70.144 69.12 71.168-70.656z" fill="#FFFFFF" p-id="2658"></path></svg>