<?xml version="1.0" standalone="no"?><!DOCTYPE svg PUBLIC "-//W3C//DTD SVG 1.1//EN" "http://www.w3.org/Graphics/SVG/1.1/DTD/svg11.dtd"><svg t="1540660475037" class="icon" style="" viewBox="0 0 1024 1024" version="1.1" xmlns="http://www.w3.org/2000/svg" p-id="4186" xmlns:xlink="http://www.w3.org/1999/xlink" width="200" height="200"><defs><style type="text/css"></style></defs><path d="M612.693333 551.867733a202.103467 202.103467 0 0 0-69.393066-15.940266c-31.300267-2.082133-71.441067 0-71.441067 0v135.509333s41.915733 0.887467 69.973333-1.160533a200.669867 200.669867 0 0 0 71.441067-17.066667 55.9104 55.9104 0 0 0-0.580267-101.341867z m-88.302933-78.848a154.248533 154.248533 0 0 0 65.262933-15.940266 49.493333 49.493333 0 0 0 27.306667-48.128 54.613333 54.613333 0 0 0-41.915733-50.4832 201.386667 201.386667 0 0 0-63.1808-8.874667c-19.797333-0.273067-39.867733 1.467733-39.867734 1.467733v121.9584s29.3888 0.887467 52.394667 0zM512 0a512 512 0 1 0 512 512A512 512 0 0 0 512 0z m208.4864 707.754667a210.090667 210.090667 0 0 1-96.8704 33.655466c-8.874667 1.194667-24.132267 2.423467-40.448 3.413334v102.638933h-63.1808v-101.000533h-48.128v101.000533h-63.1808v-101.000533H284.3648l12.970667-75.8784h37.7856a29.218133 29.218133 0 0 0 23.3472-6.212267 25.634133 25.634133 0 0 0 6.485333-18.875733v-261.461334a33.860267 33.860267 0 0 0-8.874667-29.218133 52.1216 52.1216 0 0 0-35.191466-9.557333h-36.522667V279.6544h124.279467V178.3808h63.214933v101.2736h48.093867V178.3808h63.214933v102.4a199.406933 199.406933 0 0 1 112.64 34.5088 105.5744 105.5744 0 0 1 36.625067 92.16 114.653867 114.653867 0 0 1-16.827734 50.4832 142.848 142.848 0 0 1-36.625066 30.1056 152.6784 152.6784 0 0 1 52.258133 22.7328 101.137067 101.137067 0 0 1 36.625067 86.8352 126.737067 126.737067 0 0 1-47.377067 110.148267z" fill="#FFCA28" p-id="4187"></path></svg>