<?xml version="1.0" standalone="no"?><!DOCTYPE svg PUBLIC "-//W3C//DTD SVG 1.1//EN" "http://www.w3.org/Graphics/SVG/1.1/DTD/svg11.dtd"><svg t="1540660489542" class="icon" style="" viewBox="0 0 1024 1024" version="1.1" xmlns="http://www.w3.org/2000/svg" p-id="4893" xmlns:xlink="http://www.w3.org/1999/xlink" width="200" height="200"><defs><style type="text/css"></style></defs><path d="M511.744128 512.255872m-511.744128 0a511.744128 511.744128 0 1 0 1023.488256 0 511.744128 511.744128 0 1 0-1023.488256 0Z" fill="#212121" p-id="4894"></path><path d="M511.493373 412.061489l100.598661 100.593543-100.598661 100.598661-100.593543-100.598661zM739.982009 512.255872l-0.511744 0.511744 93.137431 93.137431 93.649176-93.649175-94.16092-94.160919-93.137431 93.137431z" fill="#F4BB0B" p-id="4895"></path><path d="M350.544728 445.729135L511.744128 284.017991l163.758121 163.758121 93.137431-93.137431L511.744128 97.743128 257.407296 352.591704zM676.013993 576.223888L511.744128 740.493753l-162.734633-162.734633L255.872064 670.896552l255.872064 255.872064 257.407296-257.407297zM283.506247 512.255872l3.582209-3.070465-93.137432-93.137431L97.231384 512.255872l95.184408 95.184408 93.137431-93.137431z" fill="#F4BB0B" p-id="4896"></path></svg>