<?xml version="1.0" standalone="no"?><!DOCTYPE svg PUBLIC "-//W3C//DTD SVG 1.1//EN" "http://www.w3.org/Graphics/SVG/1.1/DTD/svg11.dtd"><svg t="1540660524252" class="icon" style="" viewBox="0 0 1024 1024" version="1.1" xmlns="http://www.w3.org/2000/svg" p-id="5798" xmlns:xlink="http://www.w3.org/1999/xlink" width="200" height="200"><defs><style type="text/css"></style></defs><path d="M512 905.216c-217.088 0-393.216-176.128-393.216-393.216S294.912 118.784 512 118.784c177.664 0 328.192 118.272 376.32 280.064h122.88C960 170.496 755.712 0 512 0 229.376 0 0 229.376 0 512s229.376 512 512 512c243.2 0 446.976-169.472 499.2-396.8h-122.88c-49.664 160.768-199.168 278.016-376.32 278.016z" fill="#2FA73F" p-id="5799"></path><path d="M888.32 398.848C839.68 237.056 689.664 118.784 512 118.784c-217.088 0-393.216 176.128-393.216 393.216s176.128 393.216 393.216 393.216c177.152 0 326.656-117.248 375.808-278.016 11.264-36.352 16.896-74.752 16.896-115.2 0.512-39.424-5.632-77.312-16.384-113.152z m-328.192 147.968v154.112H462.336v-154.624c-38.4-18.432-65.024-57.856-65.024-103.424 0-63.488 51.2-114.688 114.688-114.688 63.488 0 114.688 51.2 114.688 114.688 0 46.08-27.136 86.016-66.56 103.936z" fill="#FFFFFF" p-id="5800"></path><path d="M626.688 442.88c0 46.08-27.136 85.504-66.56 103.936v154.112H462.336v-154.624c-38.4-18.432-65.024-57.856-65.024-103.424 0-63.488 51.2-114.688 114.688-114.688 63.488 0.512 114.688 51.712 114.688 114.688z" fill="#2FA73F" p-id="5801"></path><path d="M1024 512c0 39.424-4.608 77.824-12.8 115.2h-122.88c11.264-36.352 16.896-74.752 16.896-115.2 0-39.424-5.632-77.312-16.384-113.152h122.88c8.192 36.352 12.288 74.24 12.288 113.152z" fill="#FFFFFF" p-id="5802"></path></svg>