<?xml version="1.0" standalone="no"?><!DOCTYPE svg PUBLIC "-//W3C//DTD SVG 1.1//EN" "http://www.w3.org/Graphics/SVG/1.1/DTD/svg11.dtd"><svg t="1540647288630" class="icon" style="" viewBox="0 0 1024 1024" version="1.1" xmlns="http://www.w3.org/2000/svg" p-id="1288" xmlns:xlink="http://www.w3.org/1999/xlink" width="200" height="200"><defs><style type="text/css"></style></defs><path d="M892.760468 512.344854c-27.197432-27.197432 54.394864-135.986137 54.394865-244.774842 0-108.788705-27.197432-135.986137-81.591273-108.788706-34.401508 17.200754-108.788705 54.394864-190.379979 81.591273-44.002167 14.668071-88.007403 13.513782-119.212102 9.338693a330.605673 330.605673 0 0 0-87.941911 0c-31.204699 4.175089-75.208912 5.328355-119.212103-9.338693-81.591273-27.197432-155.978471-64.390519-190.379978-81.591273-54.394864-27.197432-81.591273 0-81.591273 108.788706s81.591273 217.577411 54.394864 244.774842c-27.197432 27.197432-81.591273 135.986137-54.394864 190.379979 27.197432 54.393841 27.197432 135.986137 27.197432 135.986137s190.379978-81.591273 217.577411-81.591273 81.591273 81.591273 190.379978 81.591273 163.182546-81.591273 190.379978-81.591273c27.197432 0 217.577411 81.591273 217.577411 81.591273s0-81.591273 27.197432-135.986137c27.195386-54.394864-27.198455-163.18357-54.395888-190.379979z m-522.185989 81.591273l44.195571-54.393841 32.977065 61.193711c-30.709419-16.999163-77.172637-6.79987-77.172636-6.79987z m199.077057 156.3837h-89.406262c-8.065699 0-13.879102-7.732102-11.640108-15.480576l7.915273-27.40107a22.99369 22.99369 0 0 1 22.091134-16.61133H551.28626a22.99062 22.99062 0 0 1 22.089088 16.61133l7.916296 27.40107c2.238994 7.748475-3.576455 15.480576-11.640108 15.480576z m28.358885-149.584853l32.977065-61.193711 44.195572 54.393841c0 0.001023-46.461171-10.19827-77.172637 6.79987z" p-id="1289"></path></svg>