<?xml version="1.0" standalone="no"?><!DOCTYPE svg PUBLIC "-//W3C//DTD SVG 1.1//EN" "http://www.w3.org/Graphics/SVG/1.1/DTD/svg11.dtd"><svg t="1540651239057" class="icon" style="" viewBox="0 0 1024 1024" version="1.1" xmlns="http://www.w3.org/2000/svg" p-id="7364" xmlns:xlink="http://www.w3.org/1999/xlink" width="200" height="200"><defs><style type="text/css"></style></defs><path d="M382.83778 674.329109h225.764883v241.199411h-225.764883zM79.937099 400.397203h250.63941v221.669612h-250.63941zM382.83778 622.066815h512.833995v-378.658086c0-79.316463-64.298422-143.614885-143.614886-143.614885h-369.220132v522.272971zM330.575486 674.329109h-250.639411v97.584526c0 79.316463 64.298422 143.614885 143.614885 143.614885h107.024526v-241.199411zM660.862911 674.329109v241.199411h91.193978c79.316463 0 143.614885-64.298422 143.614886-143.614885v-97.584526h-234.808864zM330.575486 348.134909v-248.341065h-107.024526c-79.316463 0-143.614885 64.298422-143.614885 143.614885v104.72618h250.639411z" p-id="7365" fill="#00c69a"></path></svg>