<?xml version="1.0" standalone="no"?><!DOCTYPE svg PUBLIC "-//W3C//DTD SVG 1.1//EN" "http://www.w3.org/Graphics/SVG/1.1/DTD/svg11.dtd"><svg t="1540651384567" class="icon" style="" viewBox="0 0 1024 1024" version="1.1" xmlns="http://www.w3.org/2000/svg" p-id="8100" xmlns:xlink="http://www.w3.org/1999/xlink" width="200" height="200"><defs><style type="text/css"></style></defs><path d="M704 0c-176.72192 0-320 143.27808-320 320 0 20.02944 1.86368 39.60832 5.36576 58.63424l-389.36576 389.36576 0 192c0 35.34848 28.65152 64 64 64l64 0 0-64 128 0 0-128 128 0 0-128 128 0 83.0464-83.0464c34.01728 12.30848 70.69696 19.0464 108.9536 19.0464 176.72192 0 320-143.27808 320-320s-143.27808-320-320-320zM799.86688 320.12288c-53.02272 0-96.01024-42.98752-96.01024-96.01024s42.98752-96.01024 96.01024-96.01024 96.01024 42.98752 96.01024 96.01024-42.98752 96.01024-96.01024 96.01024z" p-id="8101" fill="#00c69a"></path></svg>